<?xml version="1.0" encoding="utf-8"?>
<!-- Generator: Adobe Illustrator 24.2.0, SVG Export Plug-In . SVG Version: 6.00 Build 0)  -->
<svg version="1.1" id="Ebene_1" xmlns="http://www.w3.org/2000/svg" xmlns:xlink="http://www.w3.org/1999/xlink" x="0px" y="0px"
	 viewBox="0 0 1280 900" style="enable-background:new 0 0 1280 900;" xml:space="preserve">
<style type="text/css">
	.st0{fill:#CCCCCC;}
</style>
<g>
	<g>
		<path class="st0" d="M1034.4,655.4c-55.6,0-105.1-39.7-115.4-96.3c-5.6-30.8,1.1-62,18.9-87.8c17.8-25.8,44.6-43.1,75.5-48.7
			c30.8-5.6,62,1.1,87.8,18.9c25.8,17.8,43.1,44.6,48.7,75.5l0,0c5.6,30.8-1.1,62-18.9,87.8c-17.8,25.8-44.6,43.1-75.5,48.7
			C1048.4,654.8,1041.3,655.4,1034.4,655.4z M1034.7,421.7c-7,0-14.1,0.6-21.1,1.9c-30.6,5.6-57.2,22.7-74.8,48.3
			c-17.7,25.6-24.3,56.5-18.8,87.1c10.2,56.1,59.3,95.5,114.4,95.5c6.9,0,13.9-0.6,20.9-1.9c30.6-5.6,57.2-22.7,74.8-48.3
			s24.3-56.5,18.8-87.1c-5.6-30.6-22.7-57.2-48.3-74.8C1081,428.8,1058.1,421.7,1034.7,421.7z"/>
		<path class="st0" d="M1124.3,314.9c-61.7,0-116.7-44.1-128.2-107c-6.2-34.2,1.2-68.9,21-97.5c19.8-28.6,49.6-47.8,83.8-54.1
			c34.3-6.2,68.9,1.2,97.5,21c28.6,19.8,47.8,49.6,54.1,83.8c6.2,34.2-1.2,68.9-21,97.5c-19.8,28.6-49.6,47.8-83.8,54.1
			C1139.9,314.2,1132.1,314.9,1124.3,314.9z M1124.6,55.2c-7.8,0-15.6,0.7-23.5,2.1c-34,6.2-63.5,25.2-83.2,53.7
			c-19.7,28.4-27.1,62.8-20.9,96.8c11.4,62.4,66,106.2,127.2,106.2c7.7,0,15.4-0.7,23.2-2.1c34-6.2,63.5-25.3,83.2-53.7
			c19.7-28.4,27.1-62.8,20.9-96.8c-6.2-34-25.3-63.5-53.7-83.2C1176.1,63.1,1150.7,55.2,1124.6,55.2z"/>
		<path class="st0" d="M718.7,845.4c-44.5,0-84.2-31.8-92.4-77.1c-9.3-51,24.6-100,75.6-109.3c51-9.3,100,24.6,109.3,75.6
			c4.5,24.7-0.9,49.7-15.2,70.3c-14.3,20.6-35.7,34.5-60.4,39C729.9,844.9,724.3,845.4,718.7,845.4z M718.8,658.4
			c-5.5,0-11.1,0.5-16.7,1.5c-50.4,9.2-84,57.7-74.8,108.2c9.2,50.4,57.7,84,108.2,74.8c24.4-4.4,45.7-18.1,59.8-38.6
			c14.1-20.4,19.5-45.1,15-69.6C802.1,689.9,762.8,658.4,718.8,658.4z"/>
		<path class="st0" d="M360.6,833.9c-13.3,0-26.2-4-37.4-11.7c-14.5-10-24.2-25.1-27.4-42.4c-6.5-35.8,17.3-70.2,53-76.7
			c17.3-3.2,34.8,0.6,49.3,10.6c14.5,10,24.2,25.1,27.4,42.4c3.2,17.3-0.6,34.8-10.6,49.3c-10,14.5-25.1,24.2-42.4,27.4
			C368.5,833.6,364.5,833.9,360.6,833.9z M360.7,703.1c-3.9,0-7.8,0.3-11.7,1.1c-35.2,6.4-58.7,40.3-52.2,75.5
			c3.1,17.1,12.7,31.9,26.9,41.8c14.3,9.9,31.5,13.6,48.6,10.5c17.1-3.1,31.9-12.7,41.8-26.9c9.9-14.3,13.6-31.5,10.5-48.6
			C418.9,725,391.5,703.1,360.7,703.1z"/>
		<path class="st0" d="M63.8,627c-18.8,0-35.6-13.5-39.1-32.6c-1.9-10.5,0.4-21,6.4-29.8c6-8.7,15.1-14.6,25.6-16.5
			c10.4-1.9,21,0.4,29.7,6.4c8.7,6,14.6,15.1,16.5,25.6l0,0c1.9,10.4-0.4,21-6.4,29.8c-6,8.7-15.1,14.6-25.6,16.5
			C68.5,626.8,66.1,627,63.8,627z M63.9,548.5c-2.3,0-4.7,0.2-7,0.6c-10.2,1.9-19,7.6-24.9,16.1c-5.9,8.5-8.1,18.8-6.2,29
			c3.8,21,24.1,35,45.1,31.2c10.2-1.9,19-7.6,24.9-16.1c5.9-8.5,8.1-18.8,6.3-29l0,0c-1.9-10.2-7.6-19-16.1-24.9
			C79.3,550.8,71.7,548.5,63.9,548.5z"/>
	</g>
</g>
</svg>
