<?xml version="1.0" encoding="utf-8"?>
<!-- Generator: Adobe Illustrator 24.2.0, SVG Export Plug-In . SVG Version: 6.00 Build 0)  -->
<svg version="1.1" id="Ebene_1" xmlns="http://www.w3.org/2000/svg" xmlns:xlink="http://www.w3.org/1999/xlink" x="0px" y="0px"
	 viewBox="0 0 1280 900" style="enable-background:new 0 0 1280 900;" xml:space="preserve">
<style type="text/css">
	.st0{fill:#CCCCCC;}
</style>
<g>
	<g>
		<path class="st0" d="M1034.4,655.4c-55.6,0-105.1-39.7-115.4-96.3c-5.6-30.8,1.1-62,18.9-87.8c17.8-25.8,44.6-43.1,75.5-48.7
			c30.8-5.6,62,1.1,87.8,18.9s43.1,44.6,48.7,75.5l0,0c5.6,30.8-1.1,62-18.9,87.8s-44.6,43.1-75.5,48.7
			C1048.4,654.8,1041.3,655.4,1034.4,655.4z"/>
		<path class="st0" d="M1124.3,314.9c-61.7,0-116.7-44.1-128.2-107c-6.2-34.2,1.2-68.9,21-97.5s49.6-47.8,83.8-54.1
			c34.3-6.2,68.9,1.2,97.5,21s47.8,49.6,54.1,83.8c6.2,34.2-1.2,68.9-21,97.5s-49.6,47.8-83.8,54.1
			C1139.9,314.2,1132.1,314.9,1124.3,314.9z"/>
		<path class="st0" d="M718.7,845.4c-44.5,0-84.2-31.8-92.4-77.1c-9.3-51,24.6-100,75.6-109.3s100,24.6,109.3,75.6
			c4.5,24.7-0.9,49.7-15.2,70.3s-35.7,34.5-60.4,39C729.9,844.9,724.3,845.4,718.7,845.4z"/>
		<path class="st0" d="M360.6,833.9c-13.3,0-26.2-4-37.4-11.7c-14.5-10-24.2-25.1-27.4-42.4c-6.5-35.8,17.3-70.2,53-76.7
			c17.3-3.2,34.8,0.6,49.3,10.6s24.2,25.1,27.4,42.4c3.2,17.3-0.6,34.8-10.6,49.3s-25.1,24.2-42.4,27.4
			C368.5,833.6,364.5,833.9,360.6,833.9z"/>
		<path class="st0" d="M63.8,627c-18.8,0-35.6-13.5-39.1-32.6c-1.9-10.5,0.4-21,6.4-29.8c6-8.7,15.1-14.6,25.6-16.5
			c10.4-1.9,21,0.4,29.7,6.4s14.6,15.1,16.5,25.6l0,0c1.9,10.4-0.4,21-6.4,29.8c-6,8.7-15.1,14.6-25.6,16.5
			C68.5,626.8,66.1,627,63.8,627z"/>
	</g>
</g>
</svg>
